<?xml version="1.0" encoding="utf-8"?>
<!-- Generator: Adobe Illustrator 24.3.0, SVG Export Plug-In . SVG Version: 6.00 Build 0)  -->
<svg version="1.1" id="Layer_1" xmlns="http://www.w3.org/2000/svg" xmlns:xlink="http://www.w3.org/1999/xlink" x="0px" y="0px"
	 viewBox="0 0 149 58" style="enable-background:new 0 0 149 58;" xml:space="preserve">
<style type="text/css">
	.st0{fill:#010101;}
</style>
<g>
	<g>
		<g>
			<path class="st0" d="M2.84,42.16c0-0.3,0.25-0.55,0.54-0.55c0.3,0,0.55,0.25,0.55,0.55v8.65c0,0.3-0.25,0.55-0.55,0.55
				c-0.29,0-0.54-0.25-0.54-0.55V42.16z"/>
			<path class="st0" d="M6.74,42.16c0-0.3,0.25-0.55,0.54-0.55c0.3,0,0.55,0.25,0.55,0.55v8.12h4.98c0.27,0,0.49,0.23,0.49,0.51
				c0,0.27-0.22,0.49-0.49,0.49H7.27c-0.29,0-0.54-0.25-0.54-0.55V42.16z"/>
			<path class="st0" d="M19.35,42.23c0-0.3,0.25-0.55,0.54-0.55h3.55c1.1,0,1.96,0.32,2.51,0.85c0.4,0.41,0.62,0.92,0.62,1.54v0.03
				c0,1.25-0.77,1.89-1.52,2.22c1.14,0.34,2.06,1,2.06,2.32v0.03c0,1.65-1.39,2.62-3.49,2.62h-3.73c-0.29,0-0.54-0.25-0.54-0.55
				V42.23z M23.26,45.97c1.3,0,2.21-0.59,2.21-1.72v-0.03c0-0.95-0.75-1.56-2.13-1.56h-2.92v3.31H23.26z M23.65,50.32
				c1.45,0,2.36-0.65,2.36-1.72v-0.03c0-1.04-0.88-1.65-2.55-1.65h-3.03v3.39H23.65z"/>
			<path class="st0" d="M28.67,50.58l3.9-8.52c0.14-0.3,0.34-0.48,0.69-0.48h0.05c0.33,0,0.55,0.18,0.67,0.48l3.9,8.51
				c0.04,0.1,0.07,0.19,0.07,0.27c0,0.29-0.23,0.52-0.52,0.52c-0.26,0-0.44-0.18-0.54-0.4l-1-2.21h-5.27l-1,2.24
				c-0.1,0.23-0.27,0.37-0.52,0.37c-0.27,0-0.49-0.22-0.49-0.49C28.6,50.78,28.62,50.69,28.67,50.58z M35.46,47.76l-2.21-4.91
				l-2.21,4.91H35.46z"/>
			<path class="st0" d="M39.1,46.51v-0.03c0-2.64,1.93-4.97,4.82-4.97c1.45,0,2.4,0.38,3.28,1.03c0.12,0.1,0.22,0.25,0.22,0.44
				c0,0.3-0.25,0.55-0.54,0.55c-0.12,0-0.23-0.06-0.34-0.14c-0.69-0.52-1.45-0.88-2.66-0.88c-2.13,0-3.65,1.8-3.65,3.94v0.03
				c0,2.29,1.47,3.99,3.8,3.99c1.1,0,2.11-0.43,2.77-0.96v-2.39h-2.58c-0.26,0-0.48-0.22-0.48-0.48c0-0.27,0.22-0.49,0.48-0.49h3.09
				c0.29,0,0.54,0.25,0.54,0.55v2.92c0,0.26-0.12,0.49-0.37,0.66c-0.88,0.65-2.06,1.17-3.49,1.17C40.97,51.45,39.1,49.26,39.1,46.51
				z"/>
			<path class="st0" d="M50.29,42.18c0-0.29,0.25-0.54,0.54-0.54h0.15c0.25,0,0.4,0.12,0.55,0.32l5.83,7.44v-7.25
				c0-0.29,0.23-0.54,0.54-0.54c0.29,0,0.52,0.25,0.52,0.54v8.67c0,0.29-0.21,0.51-0.49,0.51h-0.05c-0.23,0-0.4-0.14-0.56-0.33
				l-5.96-7.62v7.44c0,0.29-0.23,0.54-0.54,0.54c-0.29,0-0.52-0.25-0.52-0.54V42.18z"/>
			<path class="st0" d="M60.71,46.51v-0.03c0-2.65,1.99-4.97,4.91-4.97c2.92,0,4.89,2.29,4.89,4.94v0.03c0,2.65-1.99,4.97-4.91,4.97
				C62.67,51.45,60.71,49.16,60.71,46.51z M69.38,46.51v-0.03c0-2.18-1.59-3.97-3.79-3.97c-2.2,0-3.76,1.76-3.76,3.94v0.03
				c0,2.18,1.59,3.97,3.79,3.97C67.82,50.45,69.38,48.7,69.38,46.51z"/>
			<path class="st0" d="M76.92,42.23c0-0.3,0.25-0.55,0.54-0.55h3.06c2.17,0,3.6,1.15,3.6,3.05v0.03c0,2.07-1.73,3.14-3.77,3.14
				h-2.33v2.91c0,0.3-0.25,0.55-0.55,0.55c-0.29,0-0.54-0.25-0.54-0.55V42.23z M80.38,46.91c1.59,0,2.64-0.85,2.64-2.11v-0.03
				c0-1.37-1.03-2.09-2.58-2.09h-2.43v4.23H80.38z"/>
			<path class="st0" d="M86.09,50.74v-8.51c0-0.3,0.25-0.55,0.54-0.55h5.97c0.27,0,0.49,0.22,0.49,0.49c0,0.27-0.22,0.49-0.49,0.49
				h-5.42v3.28h4.8c0.27,0,0.49,0.23,0.49,0.49c0,0.27-0.22,0.49-0.49,0.49h-4.8v3.36h5.49c0.27,0,0.49,0.22,0.49,0.49
				c0,0.27-0.22,0.49-0.49,0.49h-6.04C86.34,51.29,86.09,51.04,86.09,50.74z"/>
			<path class="st0" d="M95.29,42.23c0-0.3,0.25-0.55,0.54-0.55h3.6c1.18,0,2.13,0.36,2.73,0.96c0.47,0.47,0.74,1.14,0.74,1.89v0.03
				c0,1.58-1.07,2.5-2.57,2.79l2.39,3.07c0.11,0.12,0.18,0.25,0.18,0.4c0,0.29-0.27,0.54-0.55,0.54c-0.22,0-0.38-0.12-0.51-0.29
				l-2.7-3.51h-2.76v3.25c0,0.3-0.25,0.55-0.55,0.55c-0.29,0-0.54-0.25-0.54-0.55V42.23z M99.32,46.58c1.44,0,2.47-0.74,2.47-1.98
				v-0.03c0-1.18-0.91-1.89-2.46-1.89h-2.96v3.9H99.32z"/>
			<path class="st0" d="M111.87,42.69h-2.79c-0.27,0-0.51-0.22-0.51-0.49c0-0.27,0.23-0.51,0.51-0.51h6.67
				c0.27,0,0.51,0.23,0.51,0.51c0,0.27-0.23,0.49-0.51,0.49h-2.79v8.12c0,0.3-0.25,0.55-0.55,0.55c-0.3,0-0.55-0.25-0.55-0.55V42.69
				z"/>
			<path class="st0" d="M118.08,47.27v-5.11c0-0.3,0.25-0.55,0.54-0.55c0.3,0,0.55,0.25,0.55,0.55v5.04c0,2.07,1.11,3.24,2.94,3.24
				c1.77,0,2.9-1.07,2.9-3.17v-5.11c0-0.3,0.25-0.55,0.55-0.55c0.29,0,0.54,0.25,0.54,0.55v5.02c0,2.8-1.61,4.25-4.01,4.25
				C119.7,51.44,118.08,49.99,118.08,47.27z"/>
			<path class="st0" d="M131.19,42.69h-2.79c-0.27,0-0.51-0.22-0.51-0.49c0-0.27,0.23-0.51,0.51-0.51h6.67
				c0.27,0,0.51,0.23,0.51,0.51c0,0.27-0.23,0.49-0.51,0.49h-2.79v8.12c0,0.3-0.25,0.55-0.55,0.55c-0.3,0-0.55-0.25-0.55-0.55V42.69
				z"/>
			<path class="st0" d="M140.08,42.69h-2.79c-0.27,0-0.51-0.22-0.51-0.49c0-0.27,0.23-0.51,0.51-0.51h6.67
				c0.27,0,0.51,0.23,0.51,0.51c0,0.27-0.23,0.49-0.51,0.49h-2.79v8.12c0,0.3-0.25,0.55-0.55,0.55s-0.55-0.25-0.55-0.55V42.69z"/>
			<path class="st0" d="M146.53,42.16c0-0.3,0.25-0.55,0.54-0.55c0.3,0,0.55,0.25,0.55,0.55v8.65c0,0.3-0.25,0.55-0.55,0.55
				c-0.29,0-0.54-0.25-0.54-0.55V42.16z"/>
		</g>
		<g>
			<path class="st0" d="M1.38,7.58h13.23c3.24,0,5.53,0.81,7.04,2.32c1.03,1.03,1.66,2.4,1.66,4.17v0.07c0,2.99-1.7,4.75-3.98,5.75
				c3.13,1.03,5.12,2.8,5.12,6.3v0.07c0,4.42-3.61,7.12-9.77,7.12H1.38V7.58z M12.85,17.86c2.18,0,3.39-0.74,3.39-2.25v-0.07
				c0-1.4-1.11-2.21-3.24-2.21H8.35v4.54H12.85z M13.88,27.63c2.18,0,3.43-0.85,3.43-2.36V25.2c0-1.4-1.11-2.32-3.5-2.32H8.35v4.76
				H13.88z"/>
			<path class="st0" d="M26.85,20.04v-0.07c0-7.41,5.97-13.42,13.94-13.42c7.96,0,13.86,5.94,13.86,13.35v0.07
				c0,7.41-5.97,13.42-13.94,13.42C32.75,33.38,26.85,27.45,26.85,20.04z M47.35,20.04v-0.07c0-3.72-2.69-6.97-6.64-6.97
				c-3.91,0-6.53,3.17-6.53,6.89v0.07c0,3.72,2.69,6.97,6.6,6.97C44.73,26.93,47.35,23.76,47.35,20.04z"/>
			<path class="st0" d="M57.49,20.04v-0.07c0-7.52,5.79-13.42,13.6-13.42c5.27,0,8.66,2.21,10.95,5.38l-5.38,4.17
				c-1.47-1.84-3.17-3.02-5.64-3.02c-3.61,0-6.16,3.06-6.16,6.82v0.07c0,3.87,2.54,6.89,6.16,6.89c2.69,0,4.28-1.25,5.82-3.13
				l5.38,3.83c-2.43,3.35-5.71,5.82-11.43,5.82C63.42,33.38,57.49,27.74,57.49,20.04z"/>
			<path class="st0" d="M83.66,20.04v-0.07c0-7.52,5.79-13.42,13.6-13.42c5.27,0,8.66,2.21,10.95,5.38l-5.38,4.17
				c-1.47-1.84-3.17-3.02-5.64-3.02c-3.61,0-6.16,3.06-6.16,6.82v0.07c0,3.87,2.54,6.89,6.16,6.89c2.69,0,4.28-1.25,5.82-3.13
				l5.38,3.83c-2.43,3.35-5.71,5.82-11.43,5.82C89.59,33.38,83.66,27.74,83.66,20.04z"/>
			<path class="st0" d="M111.45,7.58h7.15v9.66h9.18V7.58h7.15v25.81h-7.15v-9.81h-9.18v9.81h-7.15V7.58z"/>
			<path class="st0" d="M139.65,7.58h7.19v25.81h-7.19V7.58z"/>
		</g>
	</g>
</g>
</svg>
